<svg width="139" height="40" viewBox="0 0 139 40" fill="none" xmlns="http://www.w3.org/2000/svg">
    <g filter="url(#filter0_d_1_2)">
        <path
            d="M4.73031 20.824C4.73031 19.608 4.95431 18.392 5.40231 17.176C5.85031 15.928 6.44231 14.792 7.17831 13.768C7.91431 12.744 9.08231 11.912 10.6823 11.272C12.2823 10.6 13.7063 10.264 14.9543 10.264C16.2343 10.264 17.5303 10.44 18.8423 10.792C20.1863 11.144 21.1143 11.688 21.6263 12.424C22.8103 14.088 23.4023 15.72 23.4023 17.32C23.4023 18.184 23.2103 18.92 22.8263 19.528C22.4743 20.136 21.9623 20.792 21.2903 21.496C20.7463 22.072 19.8823 22.456 18.6983 22.648C17.5463 22.84 16.3943 22.936 15.2423 22.936C14.5063 22.936 13.6103 22.872 12.5543 22.744C11.4983 22.584 10.4743 22.392 9.48231 22.168C9.54631 22.808 9.70631 23.432 9.96231 24.04C10.2183 24.648 10.5223 25.112 10.8743 25.432C11.5143 26.04 12.1703 26.424 12.8423 26.584C13.5463 26.744 14.4423 26.824 15.5303 26.824C16.6823 26.824 17.7543 26.632 18.7463 26.248C19.5463 25.96 20.2023 25.816 20.7143 25.816C21.3223 25.816 21.7863 26.008 22.1063 26.392C22.4263 26.744 22.5863 27.208 22.5863 27.784C22.5863 28.584 22.1223 29.24 21.1943 29.752C20.2663 30.264 19.1943 30.648 17.9783 30.904C16.7943 31.128 15.8343 31.24 15.0983 31.24C13.5943 31.24 12.1383 30.968 10.7303 30.424C9.32231 29.88 8.15431 29.112 7.22631 28.12C6.45831 27.224 5.85031 26.152 5.40231 24.904C4.95431 23.624 4.73031 22.264 4.73031 20.824ZM15.1943 14.344C14.4903 14.344 13.7863 14.488 13.0823 14.776C12.3783 15.032 11.8023 15.4 11.3543 15.88C10.7783 16.488 10.3783 16.984 10.1543 17.368C9.96231 17.72 9.83431 18.216 9.77031 18.856C10.5703 19.112 12.2343 19.24 14.7623 19.24C16.1383 19.24 17.1943 19.032 17.9303 18.616C18.6983 18.2 19.0823 17.656 19.0823 16.984C19.0823 16.312 18.6663 15.704 17.8343 15.16C17.0023 14.616 16.1223 14.344 15.1943 14.344ZM31.3493 0.519998C31.9573 0.519998 32.5013 0.679998 32.9813 1C33.4933 1.32 33.7973 1.88 33.8933 2.68C34.2773 5.208 34.5173 7.736 34.6133 10.264C34.7413 12.76 34.8053 15.592 34.8053 18.76C34.8053 20.104 34.6933 22.552 34.4693 26.104C35.8773 26.232 36.9653 26.296 37.7333 26.296C38.2773 26.296 39.5093 26.216 41.4293 26.056C42.5493 25.896 43.5253 25.816 44.3573 25.816C45.1253 25.816 45.8293 25.896 46.4693 26.056C47.1093 26.184 47.7653 26.408 48.4373 26.728C49.1093 27.112 49.4453 27.704 49.4453 28.504C49.4453 29.144 49.2373 29.72 48.8213 30.232C48.4373 30.744 47.9733 31 47.4293 31C47.0453 31 46.4373 30.936 45.6053 30.808C44.1013 30.584 42.6613 30.472 41.2853 30.472C40.8373 30.472 40.3253 30.504 39.7493 30.568C39.2053 30.6 38.8053 30.616 38.5493 30.616C37.7813 30.712 37.0133 30.76 36.2453 30.76C34.6773 30.76 33.2693 30.68 32.0213 30.52C31.3813 30.456 30.7413 30.216 30.1013 29.8C29.4613 29.352 29.1413 28.712 29.1413 27.88C29.1413 27.4 29.2053 26.168 29.3333 24.184C29.5573 20.888 29.6693 18.376 29.6693 16.648C29.6693 15.304 29.6053 13.896 29.4773 12.424C29.3493 10.952 29.2693 10.024 29.2373 9.64C28.9493 6.92 28.8053 4.68 28.8053 2.92C28.8053 2.088 28.9973 1.48 29.3813 1.096C29.7973 0.711998 30.4533 0.519998 31.3493 0.519998ZM82.5117 29.32C82.0317 28.424 81.7277 27.432 81.5997 26.344C81.4717 25.224 81.4077 23.688 81.4077 21.736C81.4077 19.88 81.1517 18.264 80.6397 16.888C80.1277 15.512 79.0717 14.824 77.4717 14.824C76.8637 14.824 76.2557 15.016 75.6477 15.4C75.0717 15.752 74.6397 16.2 74.3517 16.744C73.9037 17.608 73.5997 18.552 73.4397 19.576C73.2797 20.568 73.1997 21.72 73.1997 23.032C73.1997 23.864 73.2477 24.712 73.3437 25.576C73.3437 25.832 73.3597 26.248 73.3917 26.824C73.4557 27.368 73.4877 27.864 73.4877 28.312C73.4877 30.232 72.8157 31.192 71.4717 31.192C69.7117 31.192 68.7837 30.264 68.6877 28.408C68.6877 27.096 68.7037 26.392 68.7357 26.296V24.232C68.7357 23.08 68.6877 21.96 68.5917 20.872C68.4957 19.784 68.3837 18.968 68.2557 18.424C67.9677 17.368 67.5837 16.552 67.1037 15.976C66.6557 15.4 65.9357 15.112 64.9437 15.112C63.5357 15.112 62.3997 15.72 61.5357 16.936C60.9277 17.896 60.5277 19.064 60.3357 20.44C60.1437 22.2 59.9997 23.592 59.9037 24.616C59.8397 25.608 59.8077 26.76 59.8077 28.072C59.8077 29 59.6477 29.752 59.3277 30.328C59.0397 30.904 58.4797 31.192 57.6477 31.192C57.0397 31.192 56.3997 31.032 55.7277 30.712C55.0877 30.36 54.7677 29.896 54.7677 29.32C54.7677 28.712 54.8317 28.104 54.9597 27.496C55.2477 25.672 55.3917 22.408 55.3917 17.704C55.3917 16.936 55.1997 16.2 54.8157 15.496C54.4637 14.76 54.0317 14.392 53.5197 14.392C53.3917 14.392 53.1517 14.456 52.7997 14.584C52.4797 14.712 52.2397 14.776 52.0797 14.776C51.6637 14.776 51.2797 14.584 50.9277 14.2C50.6077 13.816 50.4477 13.496 50.4477 13.24C50.4477 12.44 50.8317 11.768 51.5997 11.224C52.3997 10.648 53.2317 10.36 54.0957 10.36C55.2797 10.36 56.2877 10.728 57.1197 11.464C57.9517 12.2 58.5917 13.224 59.0397 14.536C59.7757 13.256 60.7677 12.232 62.0157 11.464C63.2637 10.664 64.6557 10.264 66.1917 10.264C67.1517 10.264 67.9197 10.392 68.4957 10.648C69.1037 10.872 69.5997 11.208 69.9837 11.656C70.3677 12.072 70.8637 12.712 71.4717 13.576C72.2717 12.552 73.2957 11.752 74.5437 11.176C75.8237 10.6 77.1357 10.312 78.4797 10.312C80.0797 10.312 81.5197 10.968 82.7997 12.28C84.0797 13.56 84.9437 15.048 85.3917 16.744C85.6157 17.608 85.7277 19.272 85.7277 21.736L85.9197 24.52C86.0797 26.184 86.6237 27.192 87.5517 27.544C88.6397 27.864 89.1837 28.2 89.1837 28.552C89.1837 29.32 88.9917 29.88 88.6077 30.232C88.3197 30.424 87.9197 30.632 87.4077 30.856C86.8957 31.08 86.4957 31.192 86.2077 31.192C84.4797 31.192 83.2477 30.568 82.5117 29.32ZM105.063 5.752C104.743 12.024 104.583 17.016 104.583 20.728C104.583 22.648 104.631 24.472 104.727 26.2C104.983 26.392 105.479 26.488 106.215 26.488L107.319 26.44C107.767 26.376 108.183 26.344 108.567 26.344C109.399 26.344 110.039 26.488 110.487 26.776C110.967 27.064 111.207 27.624 111.207 28.456C111.207 29.256 110.967 29.88 110.487 30.328C110.039 30.776 109.095 31 107.655 31C106.439 31 104.967 30.904 103.239 30.712C102.823 30.68 102.423 30.648 102.039 30.616C101.655 30.584 101.303 30.568 100.983 30.568C99.2231 30.6 97.9111 30.664 97.0471 30.76C96.1831 30.856 95.2071 30.904 94.1191 30.904C93.1271 30.904 92.6311 30.152 92.6311 28.648C92.6311 27.208 93.5591 26.488 95.4151 26.488C95.7031 26.488 96.1671 26.52 96.8071 26.584C97.3511 26.68 97.9271 26.728 98.5351 26.728C98.8871 26.728 99.1751 26.712 99.3991 26.68C99.4311 24.536 99.5431 21.416 99.7351 17.32C99.9271 12.52 100.023 8.968 100.023 6.664C99.8631 6.696 99.3031 6.92 98.3431 7.336C96.8711 8.072 95.7831 8.44 95.0791 8.44C94.6951 8.44 94.3431 8.248 94.0231 7.864C93.7031 7.448 93.5431 6.968 93.5431 6.424C93.5431 5.88 93.8791 5.352 94.5511 4.84C95.2231 4.328 96.3111 3.656 97.8151 2.824C98.6471 2.408 99.4471 1.944 100.215 1.432C100.407 1.304 100.679 1.176 101.031 1.048C101.415 0.919999 101.703 0.855999 101.895 0.855999C102.727 0.855999 103.479 1.032 104.151 1.384C104.855 1.704 105.207 2.136 105.207 2.68L105.063 5.752ZM122.385 26.296C123.473 25.944 124.513 25.304 125.505 24.376C126.529 23.448 127.377 22.408 128.049 21.256C128.753 20.072 129.169 18.936 129.297 17.848C128.401 18.488 127.489 18.936 126.561 19.192C125.633 19.448 124.561 19.576 123.345 19.576C121.713 19.576 120.369 19.304 119.313 18.76C118.257 18.184 117.137 17.368 115.953 16.312C115.761 16.12 115.521 15.704 115.233 15.064C114.945 14.392 114.689 13.576 114.465 12.616C114.241 11.624 114.129 10.616 114.129 9.592C114.129 8.664 114.417 7.688 114.993 6.664C115.569 5.64 116.289 4.728 117.153 3.928C118.049 3.096 118.897 2.504 119.697 2.152C120.433 1.832 121.281 1.56 122.241 1.336C123.233 1.08 124.065 0.951998 124.737 0.951998C127.009 0.951998 128.913 1.48 130.449 2.536C132.017 3.592 133.169 5 133.905 6.76C134.641 8.52 135.009 10.472 135.009 12.616C135.009 16.296 134.193 19.656 132.561 22.696C130.929 25.704 128.865 28.04 126.369 29.704C125.953 29.992 125.233 30.312 124.209 30.664C123.217 30.984 122.305 31.144 121.473 31.144C120.833 31.144 120.273 30.856 119.793 30.28C119.313 29.704 119.073 29.048 119.073 28.312C119.073 27.8 119.249 27.448 119.601 27.256C119.953 27.032 120.529 26.808 121.329 26.584L122.385 26.296ZM124.737 5.032C124.225 5.032 123.617 5.144 122.913 5.368C122.241 5.56 121.665 5.8 121.185 6.088C120.641 6.408 120.113 6.904 119.601 7.576C119.121 8.216 118.881 8.712 118.881 9.064C118.881 13.256 120.577 15.352 123.969 15.352C124.737 15.352 125.585 15.192 126.513 14.872C127.473 14.52 128.273 14.04 128.913 13.432C129.553 12.824 129.873 12.136 129.873 11.368C129.873 9.256 129.425 7.672 128.529 6.616C127.665 5.56 126.401 5.032 124.737 5.032Z"
            fill="url(#paint0_linear_1_2)" />
    </g>
    <defs>
        <filter id="filter0_d_1_2" x="0.730316" y="0.519989" width="138.278" height="38.72" filterUnits="userSpaceOnUse"
            color-interpolation-filters="sRGB">
            <feFlood flood-opacity="0" result="BackgroundImageFix" />
            <feColorMatrix in="SourceAlpha" type="matrix" values="0 0 0 0 0 0 0 0 0 0 0 0 0 0 0 0 0 0 127 0"
                result="hardAlpha" />
            <feOffset dy="4" />
            <feGaussianBlur stdDeviation="2" />
            <feComposite in2="hardAlpha" operator="out" />
            <feColorMatrix type="matrix" values="0 0 0 0 0 0 0 0 0 0 0 0 0 0 0 0 0 0 0.25 0" />
            <feBlend mode="normal" in2="BackgroundImageFix" result="effect1_dropShadow_1_2" />
            <feBlend mode="normal" in="SourceGraphic" in2="effect1_dropShadow_1_2" result="shape" />
        </filter>
        <linearGradient id="paint0_linear_1_2" x1="70" y1="-24" x2="70" y2="53" gradientUnits="userSpaceOnUse">
            <stop stop-color="white" />
            <stop offset="0.521667" stop-color="#796BCA" />
            <stop offset="1" stop-color="#F5F2F2" />
        </linearGradient>
    </defs>
</svg>