<svg width="131" height="32" viewBox="0 0 131 32" fill="none" xmlns="http://www.w3.org/2000/svg">
    <g filter="url(#filter0_i_1_2)">
        <path
            d="M0.730313 20.824C0.730313 19.608 0.954313 18.392 1.40231 17.176C1.85031 15.928 2.44231 14.792 3.17831 13.768C3.91431 12.744 5.08231 11.912 6.68231 11.272C8.28231 10.6 9.70631 10.264 10.9543 10.264C12.2343 10.264 13.5303 10.44 14.8423 10.792C16.1863 11.144 17.1143 11.688 17.6263 12.424C18.8103 14.088 19.4023 15.72 19.4023 17.32C19.4023 18.184 19.2103 18.92 18.8263 19.528C18.4743 20.136 17.9623 20.792 17.2903 21.496C16.7463 22.072 15.8823 22.456 14.6983 22.648C13.5463 22.84 12.3943 22.936 11.2423 22.936C10.5063 22.936 9.61031 22.872 8.55431 22.744C7.49831 22.584 6.47431 22.392 5.48231 22.168C5.54631 22.808 5.70631 23.432 5.96231 24.04C6.21831 24.648 6.52231 25.112 6.87431 25.432C7.51431 26.04 8.17031 26.424 8.84231 26.584C9.54631 26.744 10.4423 26.824 11.5303 26.824C12.6823 26.824 13.7543 26.632 14.7463 26.248C15.5463 25.96 16.2023 25.816 16.7143 25.816C17.3223 25.816 17.7863 26.008 18.1063 26.392C18.4263 26.744 18.5863 27.208 18.5863 27.784C18.5863 28.584 18.1223 29.24 17.1943 29.752C16.2663 30.264 15.1943 30.648 13.9783 30.904C12.7943 31.128 11.8343 31.24 11.0983 31.24C9.59431 31.24 8.13831 30.968 6.73031 30.424C5.32231 29.88 4.15431 29.112 3.22631 28.12C2.45831 27.224 1.85031 26.152 1.40231 24.904C0.954313 23.624 0.730313 22.264 0.730313 20.824ZM11.1943 14.344C10.4903 14.344 9.78631 14.488 9.08231 14.776C8.37831 15.032 7.80231 15.4 7.35431 15.88C6.77831 16.488 6.37831 16.984 6.15431 17.368C5.96231 17.72 5.83431 18.216 5.77031 18.856C6.57031 19.112 8.23431 19.24 10.7623 19.24C12.1383 19.24 13.1943 19.032 13.9303 18.616C14.6983 18.2 15.0823 17.656 15.0823 16.984C15.0823 16.312 14.6663 15.704 13.8343 15.16C13.0023 14.616 12.1223 14.344 11.1943 14.344ZM27.3493 0.519998C27.9573 0.519998 28.5013 0.679998 28.9813 1C29.4933 1.32 29.7973 1.88 29.8933 2.68C30.2773 5.208 30.5173 7.736 30.6133 10.264C30.7413 12.76 30.8053 15.592 30.8053 18.76C30.8053 20.104 30.6933 22.552 30.4693 26.104C31.8773 26.232 32.9653 26.296 33.7333 26.296C34.2773 26.296 35.5093 26.216 37.4293 26.056C38.5493 25.896 39.5253 25.816 40.3573 25.816C41.1253 25.816 41.8293 25.896 42.4693 26.056C43.1093 26.184 43.7653 26.408 44.4373 26.728C45.1093 27.112 45.4453 27.704 45.4453 28.504C45.4453 29.144 45.2373 29.72 44.8213 30.232C44.4373 30.744 43.9733 31 43.4293 31C43.0453 31 42.4373 30.936 41.6053 30.808C40.1013 30.584 38.6613 30.472 37.2853 30.472C36.8373 30.472 36.3253 30.504 35.7493 30.568C35.2053 30.6 34.8053 30.616 34.5493 30.616C33.7813 30.712 33.0133 30.76 32.2453 30.76C30.6773 30.76 29.2693 30.68 28.0213 30.52C27.3813 30.456 26.7413 30.216 26.1013 29.8C25.4613 29.352 25.1413 28.712 25.1413 27.88C25.1413 27.4 25.2053 26.168 25.3333 24.184C25.5573 20.888 25.6693 18.376 25.6693 16.648C25.6693 15.304 25.6053 13.896 25.4773 12.424C25.3493 10.952 25.2693 10.024 25.2373 9.64C24.9493 6.92 24.8053 4.68 24.8053 2.92C24.8053 2.088 24.9973 1.48 25.3813 1.096C25.7973 0.711998 26.4533 0.519998 27.3493 0.519998ZM78.5117 29.32C78.0317 28.424 77.7277 27.432 77.5997 26.344C77.4717 25.224 77.4077 23.688 77.4077 21.736C77.4077 19.88 77.1517 18.264 76.6397 16.888C76.1277 15.512 75.0717 14.824 73.4717 14.824C72.8637 14.824 72.2557 15.016 71.6477 15.4C71.0717 15.752 70.6397 16.2 70.3517 16.744C69.9037 17.608 69.5997 18.552 69.4397 19.576C69.2797 20.568 69.1997 21.72 69.1997 23.032C69.1997 23.864 69.2477 24.712 69.3437 25.576C69.3437 25.832 69.3597 26.248 69.3917 26.824C69.4557 27.368 69.4877 27.864 69.4877 28.312C69.4877 30.232 68.8157 31.192 67.4717 31.192C65.7117 31.192 64.7837 30.264 64.6877 28.408C64.6877 27.096 64.7037 26.392 64.7357 26.296V24.232C64.7357 23.08 64.6877 21.96 64.5917 20.872C64.4957 19.784 64.3837 18.968 64.2557 18.424C63.9677 17.368 63.5837 16.552 63.1037 15.976C62.6557 15.4 61.9357 15.112 60.9437 15.112C59.5357 15.112 58.3997 15.72 57.5357 16.936C56.9277 17.896 56.5277 19.064 56.3357 20.44C56.1437 22.2 55.9997 23.592 55.9037 24.616C55.8397 25.608 55.8077 26.76 55.8077 28.072C55.8077 29 55.6477 29.752 55.3277 30.328C55.0397 30.904 54.4797 31.192 53.6477 31.192C53.0397 31.192 52.3997 31.032 51.7277 30.712C51.0877 30.36 50.7677 29.896 50.7677 29.32C50.7677 28.712 50.8317 28.104 50.9597 27.496C51.2477 25.672 51.3917 22.408 51.3917 17.704C51.3917 16.936 51.1997 16.2 50.8157 15.496C50.4637 14.76 50.0317 14.392 49.5197 14.392C49.3917 14.392 49.1517 14.456 48.7997 14.584C48.4797 14.712 48.2397 14.776 48.0797 14.776C47.6637 14.776 47.2797 14.584 46.9277 14.2C46.6077 13.816 46.4477 13.496 46.4477 13.24C46.4477 12.44 46.8317 11.768 47.5997 11.224C48.3997 10.648 49.2317 10.36 50.0957 10.36C51.2797 10.36 52.2877 10.728 53.1197 11.464C53.9517 12.2 54.5917 13.224 55.0397 14.536C55.7757 13.256 56.7677 12.232 58.0157 11.464C59.2637 10.664 60.6557 10.264 62.1917 10.264C63.1517 10.264 63.9197 10.392 64.4957 10.648C65.1037 10.872 65.5997 11.208 65.9837 11.656C66.3677 12.072 66.8637 12.712 67.4717 13.576C68.2717 12.552 69.2957 11.752 70.5437 11.176C71.8237 10.6 73.1357 10.312 74.4797 10.312C76.0797 10.312 77.5197 10.968 78.7997 12.28C80.0797 13.56 80.9437 15.048 81.3917 16.744C81.6157 17.608 81.7277 19.272 81.7277 21.736L81.9197 24.52C82.0797 26.184 82.6237 27.192 83.5517 27.544C84.6397 27.864 85.1837 28.2 85.1837 28.552C85.1837 29.32 84.9917 29.88 84.6077 30.232C84.3197 30.424 83.9197 30.632 83.4077 30.856C82.8957 31.08 82.4957 31.192 82.2077 31.192C80.4797 31.192 79.2477 30.568 78.5117 29.32ZM101.063 5.752C100.743 12.024 100.583 17.016 100.583 20.728C100.583 22.648 100.631 24.472 100.727 26.2C100.983 26.392 101.479 26.488 102.215 26.488L103.319 26.44C103.767 26.376 104.183 26.344 104.567 26.344C105.399 26.344 106.039 26.488 106.487 26.776C106.967 27.064 107.207 27.624 107.207 28.456C107.207 29.256 106.967 29.88 106.487 30.328C106.039 30.776 105.095 31 103.655 31C102.439 31 100.967 30.904 99.2391 30.712C98.8231 30.68 98.4231 30.648 98.0391 30.616C97.6551 30.584 97.3031 30.568 96.9831 30.568C95.2231 30.6 93.9111 30.664 93.0471 30.76C92.1831 30.856 91.2071 30.904 90.1191 30.904C89.1271 30.904 88.6311 30.152 88.6311 28.648C88.6311 27.208 89.5591 26.488 91.4151 26.488C91.7031 26.488 92.1671 26.52 92.8071 26.584C93.3511 26.68 93.9271 26.728 94.5351 26.728C94.8871 26.728 95.1751 26.712 95.3991 26.68C95.4311 24.536 95.5431 21.416 95.7351 17.32C95.9271 12.52 96.0231 8.968 96.0231 6.664C95.8631 6.696 95.3031 6.92 94.3431 7.336C92.8711 8.072 91.7831 8.44 91.0791 8.44C90.6951 8.44 90.3431 8.248 90.0231 7.864C89.7031 7.448 89.5431 6.968 89.5431 6.424C89.5431 5.88 89.8791 5.352 90.5511 4.84C91.2231 4.328 92.3111 3.656 93.8151 2.824C94.6471 2.408 95.4471 1.944 96.2151 1.432C96.4071 1.304 96.6791 1.176 97.0311 1.048C97.4151 0.919999 97.7031 0.855999 97.8951 0.855999C98.7271 0.855999 99.4791 1.032 100.151 1.384C100.855 1.704 101.207 2.136 101.207 2.68L101.063 5.752ZM118.385 26.296C119.473 25.944 120.513 25.304 121.505 24.376C122.529 23.448 123.377 22.408 124.049 21.256C124.753 20.072 125.169 18.936 125.297 17.848C124.401 18.488 123.489 18.936 122.561 19.192C121.633 19.448 120.561 19.576 119.345 19.576C117.713 19.576 116.369 19.304 115.313 18.76C114.257 18.184 113.137 17.368 111.953 16.312C111.761 16.12 111.521 15.704 111.233 15.064C110.945 14.392 110.689 13.576 110.465 12.616C110.241 11.624 110.129 10.616 110.129 9.592C110.129 8.664 110.417 7.688 110.993 6.664C111.569 5.64 112.289 4.728 113.153 3.928C114.049 3.096 114.897 2.504 115.697 2.152C116.433 1.832 117.281 1.56 118.241 1.336C119.233 1.08 120.065 0.951998 120.737 0.951998C123.009 0.951998 124.913 1.48 126.449 2.536C128.017 3.592 129.169 5 129.905 6.76C130.641 8.52 131.009 10.472 131.009 12.616C131.009 16.296 130.193 19.656 128.561 22.696C126.929 25.704 124.865 28.04 122.369 29.704C121.953 29.992 121.233 30.312 120.209 30.664C119.217 30.984 118.305 31.144 117.473 31.144C116.833 31.144 116.273 30.856 115.793 30.28C115.313 29.704 115.073 29.048 115.073 28.312C115.073 27.8 115.249 27.448 115.601 27.256C115.953 27.032 116.529 26.808 117.329 26.584L118.385 26.296ZM120.737 5.032C120.225 5.032 119.617 5.144 118.913 5.368C118.241 5.56 117.665 5.8 117.185 6.088C116.641 6.408 116.113 6.904 115.601 7.576C115.121 8.216 114.881 8.712 114.881 9.064C114.881 13.256 116.577 15.352 119.969 15.352C120.737 15.352 121.585 15.192 122.513 14.872C123.473 14.52 124.273 14.04 124.913 13.432C125.553 12.824 125.873 12.136 125.873 11.368C125.873 9.256 125.425 7.672 124.529 6.616C123.665 5.56 122.401 5.032 120.737 5.032Z"
            fill="url(#paint0_linear_1_2)" />
    </g>
    <defs>
        <filter id="filter0_i_1_2" x="0.730316" y="0.519997" width="130.278" height="34.72" filterUnits="userSpaceOnUse"
            color-interpolation-filters="sRGB">
            <feFlood flood-opacity="0" result="BackgroundImageFix" />
            <feBlend mode="normal" in="SourceGraphic" in2="BackgroundImageFix" result="shape" />
            <feColorMatrix in="SourceAlpha" type="matrix" values="0 0 0 0 0 0 0 0 0 0 0 0 0 0 0 0 0 0 127 0"
                result="hardAlpha" />
            <feOffset dy="4" />
            <feGaussianBlur stdDeviation="2" />
            <feComposite in2="hardAlpha" operator="arithmetic" k2="-1" k3="1" />
            <feColorMatrix type="matrix" values="0 0 0 0 0 0 0 0 0 0 0 0 0 0 0 0 0 0 0.25 0" />
            <feBlend mode="normal" in2="shape" result="effect1_innerShadow_1_2" />
        </filter>
        <linearGradient id="paint0_linear_1_2" x1="66" y1="-24" x2="66" y2="53" gradientUnits="userSpaceOnUse">
            <stop />
            <stop offset="0.24" stop-color="#050505" />
            <stop offset="0.391667" stop-color="#194688" />
            <stop offset="0.855" stop-color="#4A4A4A" />
            <stop offset="0.945" stop-color="#5B5B5B" />
            <stop offset="1" stop-color="#666666" />
        </linearGradient>
    </defs>
</svg>